<svg width="42" height="41" viewBox="0 0 42 41" fill="none" xmlns="http://www.w3.org/2000/svg">
<g filter="url(#filter0_d_25_20)">
<path d="M5.25 27V18C5.25 14.4196 6.90937 10.9858 9.86307 8.45406C12.8168 5.92232 16.8228 4.5 21 4.5C25.1772 4.5 29.1832 5.92232 32.1369 8.45406C35.0906 10.9858 36.75 14.4196 36.75 18V27" stroke="#008000" stroke-width="2" stroke-linecap="round" stroke-linejoin="round"/>
<path d="M36.75 28.5C36.75 29.2956 36.3813 30.0587 35.7249 30.6213C35.0685 31.1839 34.1783 31.5 33.25 31.5H31.5C30.5717 31.5 29.6815 31.1839 29.0251 30.6213C28.3687 30.0587 28 29.2956 28 28.5V24C28 23.2044 28.3687 22.4413 29.0251 21.8787C29.6815 21.3161 30.5717 21 31.5 21H36.75V28.5ZM5.25 28.5C5.25 29.2956 5.61875 30.0587 6.27513 30.6213C6.9315 31.1839 7.82174 31.5 8.75 31.5H10.5C11.4283 31.5 12.3185 31.1839 12.9749 30.6213C13.6313 30.0587 14 29.2956 14 28.5V24C14 23.2044 13.6313 22.4413 12.9749 21.8787C12.3185 21.3161 11.4283 21 10.5 21H5.25V28.5Z" stroke="#008000" stroke-width="2" stroke-linecap="round" stroke-linejoin="round"/>
</g>
<defs>
<filter id="filter0_d_25_20" x="-4" y="0" width="50" height="44" filterUnits="userSpaceOnUse" color-interpolation-filters="sRGB">
<feFlood flood-opacity="0" result="BackgroundImageFix"/>
<feColorMatrix in="SourceAlpha" type="matrix" values="0 0 0 0 0 0 0 0 0 0 0 0 0 0 0 0 0 0 127 0" result="hardAlpha"/>
<feOffset dy="4"/>
<feGaussianBlur stdDeviation="2"/>
<feColorMatrix type="matrix" values="0 0 0 0 0 0 0 0 0 0 0 0 0 0 0 0 0 0 0.25 0"/>
<feBlend mode="normal" in2="BackgroundImageFix" result="effect1_dropShadow_25_20"/>
<feBlend mode="normal" in="SourceGraphic" in2="effect1_dropShadow_25_20" result="shape"/>
</filter>
</defs>
</svg>
